<?xml version="1.0" encoding="UTF-8"?>
<!-- Generator: Adobe Illustrator 17.1.0, SVG Export Plug-In . SVG Version: 6.00 Build 0)  -->
<!DOCTYPE svg PUBLIC "-//W3C//DTD SVG 1.1//EN" "http://www.w3.org/Graphics/SVG/1.1/DTD/svg11.dtd">
<svg version="1.1" id="Layer_1" xmlns="http://www.w3.org/2000/svg" xmlns:xlink="http://www.w3.org/1999/xlink" x="0px" y="0px" viewBox="0 0 612 792" enable-background="new 0 0 612 792" xml:space="preserve">
<g>
	<path fill="#FFFFFF" d="M200.4,366.2c-1.1-1.2-2.2-2.4-3.5-3.5c0.9,0.9,1.9,1.9,2.8,2.8L200.4,366.2z"/>
	<path fill="#FFFFFF" d="M195.3,432.7c2.5-2,4.8-4.4,6.8-6.8l-2.4,2.5C198.3,429.7,196.7,431.2,195.3,432.7z"/>
	<g>
		<path fill="#FF4338" d="M227.2,399.3l2.4-2.6l0,0l-1.3,1.6L202,425.8"/>
		<path fill="#FF4338" d="M195.1,432.7c-7.9,6.5-18,10.4-29,10.4c-25.3,0-46-20.6-46-46c0-25.5,20.6-46,46-46    c11.6,0,22.2,4.4,30.2,11.4c-28.9-28.8-46.8-68.5-46.8-112.6c0-3.1,0.1-6.1,0.2-9.2C67,246,1.4,313.8,1.3,397.9l0,0v0.1v0.1l0,0    c0.1,46.3,19.9,87.7,51.6,116.3c25.9,23.6,60.2,38.7,97.6,41.1c-0.2-3.8,1.3-8.6,1.9-12.4c1.5-10,0.9-18.7,2.8-28.3l40.1-81.3    L195.1,432.7"/>
		<path fill="#FFFFFF" d="M228.3,395.7l1.2,1.3l0,0L228.3,395.7l-27.9-29.4l-0.7-0.7c-0.9-0.9-1.9-1.9-2.8-2.8    c-0.1-0.1-0.4-0.2-0.5-0.4c1.1,1.1,2.1,2.2,3.3,3.2L228.3,395.7z"/>
	</g>
</g>
<path fill="#FFFFFF" d="M306.1,475.4"/>
<g>
	<path fill="#FFFFFF" d="M275.4,503.7c-1.2,1.1-2.4,2.2-3.5,3.5c0.9-0.9,1.9-1.9,2.8-2.8L275.4,503.7z"/>
	<path fill="#FFFFFF" d="M341.7,508.7c-2-2.5-4.4-4.8-6.8-6.8l2.5,2.4C338.7,505.8,340.2,507.3,341.7,508.7z"/>
	<g>
		<path fill="#FF5000" d="M431.8,539.9c-31.7-4.7-62.7-6.7-85.3-27.3c-3.2-2.8-6.1-5.8-9.1-8.8l-29.9-28.5l-1.4-1.3l-1.4,1.3    l-29.9,28.5c-2.9,3.1-5.9,6-9.1,8.8c-28.2,25.6-65.7,41.3-106.7,41.3c-3.4,0-6.8-0.1-10.3-0.4c5.8,82.3,73.4,147.3,157.2,147.5    l0,0h0.1h0.1l0,0c50.2-0.1,94.5-23.5,123.3-59.8c19.3-24.4,31.8-54.8,34-87.8 M306.1,583.8c-24.9,0-46-22.6-46-46    c0-11.8,4.5-22.5,11.8-30.6c0.9-0.9,1.9-1.9,2.8-2.8l0.7-0.7l29.4-27.9l1.4-1.3l1.4,1.3l27.6,26.3l2.5,2.4    c1.4,1.5,2.9,2.9,4.4,4.5c6.5,7.9,10.4,18,10.4,29C352,563.2,331.4,583.8,306.1,583.8z"/>
	</g>
</g>
<g>
	<path fill="#FFFFFF" d="M336.8,291c1.2-1.1,2.4-2.2,3.5-3.5c-0.9,0.9-1.9,1.9-2.8,2.8L336.8,291z"/>
	<path fill="#FFFFFF" d="M270.4,286c2,2.5,4.4,4.8,6.8,6.8l-2.5-2.4C273.5,288.8,271.9,287.4,270.4,286z"/>
	<g>
		<path fill="#CF0A2C" d="M429.4,150.8c-28.7-36.3-73.1-59.7-123.3-59.8l0,0h-0.1H306l0,0c-84.5,0.1-152.8,66.4-157.4,149.7    c-0.1,3.1-0.2,6.1-0.2,9.2c0,45.6,19.3,86.8,50.1,115.8l28.6,30.1l1.3,1.3l26.2-27.5l51.6-49.2l2.5-2.4l28.9-27.5    c23.9-25.3,56-42.9,92.1-48.3c7.8-1.2,15.7-1.8,23.7-1.8c3.5,0,7,0.1,10.4,0.4C461.6,206.8,449.2,175.8,429.4,150.8z M340.2,287.5    c-0.9,0.9-1.9,1.9-2.8,2.8l-0.7,0.7l-29.4,28l-1.4,1.3l-1.4-1.3L277,292.7l-2.5-2.4c-1.4-1.5-2.9-2.9-4.4-4.5    c-6.5-7.9-10.4-18-10.4-29c0-25.3,20.6-46,46-46s46,20.6,46,46C352,268.6,347.5,279.4,340.2,287.5z"/>
	</g>
</g>
<g>
	<path fill="#FFFFFF" d="M412,426.8c1.1,1.2,2.2,2.4,3.5,3.5c-0.9-0.9-1.9-1.9-2.8-2.8L412,426.8z"/>
	<path fill="#FFFFFF" d="M412.6,364.8c1.5-1.4,2.9-2.9,4.5-4.4"/>
	<g>
		<path fill="#FFA400" d="M417.1,360.3c7.9-6.5,18-10.4,29-10.4c25.3,0,46,20.6,46,46c0,25.5-20.6,46-46,46    c-11.8,0-22.5-4.5-30.6-11.8c4.6,4.5,9,9.2,12.8,14.3c15.7,19.8,26.8,43.4,31.6,69.1c1.8,9.5,2.8,19.3,2.8,29.5    c0,3.9-0.2,7.7-0.5,11.4c37.4-2.4,71.2-17.3,97.1-40.9c31.6-28.8,51.5-70.1,51.6-116.3l0,0v-0.1V397l0,0    c-0.1-84.2-65.7-152.1-148.5-157.2c0.1,3.1,0.2,6.1,0.2,9.2c0,37.2-12.8,71.5-34.3,98.5"/>
		<polyline fill="#F7941E" points="384.1,394.7 382.8,396 382.8,396 384.1,394.7   "/>
		<path fill="#FFFFFF" d="M382.9,396.1"/>
	</g>
</g>
<g>
	<path fill="#E24301" d="M461,513.6c-4.8-25.8-15.9-49.4-31.6-69.1c-4.8-6.1-10.1-11.8-15.8-17.2l-27.5-28.9l-2.5-2.6L333.9,448   l-28,26.9l1.4,1.3l29.9,28.5c2.9,3.1,5.9,6,9.1,8.8c22.6,20.6,51.3,34.8,83,39.5c7.8,1.2,15.7,1.8,23.7,1.8c3.4,0,6.8-0.1,10.3-0.4   c0.2-3.8,0.5-7.5,0.5-11.4C463.9,533.1,462.8,523.2,461,513.6z"/>
	<path fill="#FF3A1E" d="M383.8,396l1.3-1.3l28.6-30.1c5.7-5.3,11-11.1,15.8-17.2c21.5-27.1,34.3-61.3,34.3-98.5   c0-3.1-0.1-6.1-0.2-9.2c-3.4-0.2-6.8-0.4-10.4-0.4c-8,0-15.9,0.6-23.7,1.8c-36.1,5.4-68.2,23-92.1,48.3l-28.9,27.5l-2.5,2.4   l-51.6,49.2L228.3,396l-2.4,2.6l-27.5,28.9c-24,22.6-41,52.6-47.3,86.3c-1.8,9.5-2.8,19.3-2.8,29.5c0,3.9,0.2,7.7,0.5,11.4   c3.4,0.2,6.7,0.4,10.3,0.4c41.1,0,78.5-15.7,106.7-41.3c3.1-2.8,6.1-5.8,9.1-8.8l29.9-28.5l1.4-1.3l28.1-26.8L383.8,396z"/>
</g>
</svg>