<svg id="Layer_1" data-name="Layer 1" xmlns="http://www.w3.org/2000/svg" viewBox="0 0 1632 1632"><title>link</title><path d="M1520,1216q0-40-28-68L1284,940q-28-28-68-28-42,0-72,32,3,3,19,18.5t21.5,21.5a238.1193,238.1193,0,0,1,15,19q9.5,13,13,25.5a101.785,101.785,0,0,1,3.5,27.5q0,40-28,68t-68,28a101.785,101.785,0,0,1-27.5-3.5q-12.5-3.5-25.5-13a238.1306,238.1306,0,0,1-19-15q-6-5.5-21.5-21.5t-18.5-19q-33,31-33,73,0,40,28,68l206,207q27,27,68,27,40,0,68-26l147-146Q1520,1255,1520,1216ZM817,511q0-40-28-68L583,236q-28-28-68-28-39,0-68,27L300,381q-28,28-28,67,0,40,28,68L508,724q27,27,68,27,42,0,72-31-3-3-19-18.5T607.5,680a238.0909,238.0909,0,0,1-15-19q-9.5-13-13-25.5A101.787,101.787,0,0,1,576,608q0-40,28-68t68-28a101.787,101.787,0,0,1,27.5,3.5q12.5,3.5,25.5,13a238.0909,238.0909,0,0,1,19,15q6,5.5,21.5,21.5T784,584Q817,553,817,511Zm895,705q0,120-85,203l-147,146q-83,83-203,83-121,0-204-85L867,1356q-83-83-83-203,0-123,88-209l-88-88q-86,88-208,88-120,0-204-84L164,652Q80,568,80,448t85-203L312,99q83-83,203-83,121,0,204,85L925,308q83,83,83,203,0,123-88,209l88,88q86-88,208-88,120,0,204,84l208,208Q1712,1096,1712,1216Z" transform="translate(-80 -16)" style="fill:#aaa"/></svg>